<?xml version="1.0" encoding="UTF-8"?>
<svg id="logo" xmlns="http://www.w3.org/2000/svg" xmlns:xlink="http://www.w3.org/1999/xlink" viewBox="0 0 376.98417403 142.55042796">
  <defs>
    <clipPath id="clippath">
      <path id="tail-base" d="M24.15931664,81.38630522c-1.97420171-2.8744094-3.12903143-6.35659251-3.12903143-10.11109124,0-12.27241051,5.85558866-23.17717575,14.92527861-30.07280449,3.06885001,3.15166228,4.95915595,7.45659103,4.95915595,12.20302438-9.86921236,9.86921236-9.86921668,25.87036283-.00000964,35.73956987l-2.01463927-.00000066c-6.12274044,0-11.52127658-3.07118457-14.74075421-7.75869786ZM101.70936469,35.64128584c1.00023571,5.65016971.09183903,11.67026561-3.00168187,17.02840705-1.23743071,2.14329528-2.74140433,4.03675847-4.44587357,5.66269182-2.39656504-6.56746578-6.56476482-12.28260392-11.92625318-16.56706858-.29250339,7.4384204-2.46136332,14.39476484-6.04641295,20.40886662-.90755598-1.74440748-2.09346754-3.38162113-3.55773425-4.84588688-3.4897868-3.48978452-7.96193712-5.39847806-12.52630747-5.72608113.36556652,1.46307709.66279858,2.95768268.88769809,4.48084744,2.70708645,18.33413777,11.7611093,34.16230502,24.60466534,45.58515068-6.52899348-3.27712473-13.90412612-5.12130661-21.71413135-5.12130676l-23.22914523-.00000037c-13.96852409,0-25.27168778-11.30316765-25.27168778-25.27169174,0-8.10821866,2.22853371-15.69593566,6.10655074-22.18402809-1.11948361-4.37953549-3.91644784-8.25336407-7.90599267-10.65902108C-2.24678765,60.2511136-.36151176,91.02042007,19.33889101,110.72082284c21.78519646,21.78519646,57.10598822,21.78518693,78.89119644-.00002129,19.42754443-19.42754443,21.53006201-49.61947764,6.3075484-71.37692594-.88429244-1.26391393-1.82704949-2.49936506-2.82827116-3.70258977ZM44.83758929,57.32831251c-7.70266515,7.70267018-7.70266444,20.19115859.00000159,27.89381958l13.946909-13.94691811-13.94691059-13.94690147Z" fill="none" stroke-width="0"/>
    </clipPath>
    <radialGradient id="radial-gradient" cx="86.27615362" cy="33.79028181" fx="86.27615362" fy="33.79028181" r="118.82652957" gradientUnits="userSpaceOnUse">
      <stop offset="0" stop-color="#82ebff"/>
      <stop offset=".46879701" stop-color="#00b4f4"/>
      <stop offset=".6803023" stop-color="#0085e7"/>
      <stop offset=".84999997" stop-color="#0064df"/>
      <stop offset=".99508896" stop-color="#400096"/>
    </radialGradient>
    <linearGradient id="linear-gradient" x1="147.30901739" y1="39.05493297" x2="-29.74001736" y2="103.49551163" gradientUnits="userSpaceOnUse">
      <stop offset="0" stop-color="gray"/>
      <stop offset=".23860198" stop-color="gray"/>
      <stop offset=".26135948" stop-color="#757575"/>
      <stop offset=".35846199" stop-color="#4b4b4b"/>
      <stop offset=".45315502" stop-color="#2a2a2a"/>
      <stop offset=".54354598" stop-color="#131313"/>
      <stop offset=".62785312" stop-color="#040404"/>
      <stop offset=".7" stop-color="#000"/>
      <stop offset="1" stop-color="#000"/>
    </linearGradient>
    <mask id="mask" x="-14.71544764" y="-2.22473307" width="146.99989531" height="146.99991074" maskUnits="userSpaceOnUse">
      <rect x="-14.71544764" y="-2.22473307" width="146.99989531" height="146.99991074" fill="url(#linear-gradient)" stroke-width="0"/>
    </mask>
    <linearGradient id="linear-gradient-2" x1="147.30901739" y1="39.05493297" x2="-29.74001736" y2="103.49551163" gradientUnits="userSpaceOnUse">
      <stop offset="0" stop-color="#82ebff"/>
      <stop offset=".23860198" stop-color="#82ebff"/>
      <stop offset=".28989232" stop-color="#67e8ff"/>
      <stop offset=".37347965" stop-color="#42e6ff"/>
      <stop offset=".45715534" stop-color="#25e3ff"/>
      <stop offset=".53992876" stop-color="#10e2ff"/>
      <stop offset=".62139895" stop-color="#04e1ff"/>
      <stop offset=".70000002" stop-color="#00e1ff"/>
      <stop offset="1" stop-color="#00e1ff"/>
    </linearGradient>
    <clipPath id="clippath-1">
      <path id="tail-tip" d="M59.84015357,46.0254423c5.38691616.22382512,10.71587565,2.16171721,15.09921969,5.81367652,1.22153924-3.7139725,1.88238249-7.68244112,1.88238182-11.80525791-.00000048-2.94788646-.33785748-5.81686229-.97696168-8.5703182,7.87837919,3.380512,14.55187481,9.03119489,19.1974437,16.12900582,3.75235303-9.01309035.32268421-19.62800574-8.35853324-24.6401033-15.97058091-9.23408985-35.53976751-9.89760647-52.02751307-1.99055167,10.6891486,4.87318513,19.34383389,13.76526533,23.76350274,25.04424516.47353275-.00679397.94722004-.00035944,1.42046004.01930357Z" fill="none" stroke-width="0"/>
    </clipPath>
    <radialGradient id="radial-gradient-2" cx="8.65342286" cy="82.2558565" fx="8.65342286" fy="82.2558565" r="106.75501453" gradientUnits="userSpaceOnUse">
      <stop offset=".54548502" stop-color="#9399cb"/>
      <stop offset=".63803996" stop-color="#9facd2"/>
      <stop offset=".87917893" stop-color="#bcdbe5"/>
      <stop offset="1" stop-color="#c8eded"/>
    </radialGradient>
  </defs>
  <g id="wordmark-group">
    <g id="logomark-group">
      <g clip-path="url(#clippath)">
        <rect id="body-gradient" x="-14.71545536" y="-2.22473307" width="146.99991074" height="146.99991074" fill="url(#radial-gradient)" stroke-width="0"/>
        <g mask="url(#mask)">
          <rect id="opacity-mask" x="-14.71544764" y="-2.22473307" width="146.99989531" height="146.99991074" fill="url(#linear-gradient-2)" stroke-width="0"/>
        </g>
      </g>
      <g clip-path="url(#clippath-1)">
        <rect id="tail-tip-gradient" x="-14.71544766" y="-3.33830106" width="146.99989531" height="146.99989531" fill="url(#radial-gradient-2)" stroke-width="0"/>
      </g>
    </g>
    <g id="text-group">
      <path d="M136.88184817,87.25028701v-43.99790045h28.64324572v6.20114551h-21.67495834v13.22851956h19.31149174v6.20114551h-19.31149174v18.36708987h-6.96828738Z" fill="#ededed" stroke-width="0"/>
      <path d="M205.74144777,87.95932699c-3.07053703,0-5.87518407-.71790298-8.41591068-2.1556785-2.53875705-1.43679074-4.55755144-3.41520925-6.05244407-5.93525552-1.49686218-2.51906149-2.24529328-5.39362775-2.24529328-8.62271401,0-3.18871036.73858331-6.04358107,2.21574994-8.56362734,1.47519707-2.51906149,3.48414369-4.49748,6.02290074-5.93525552,2.5407266-1.43679074,5.3650692-2.1556785,8.47499734-2.1556785s5.92442296.71888776,8.44545401,2.1556785c2.51906149,1.43777552,4.51816033,3.40634625,5.9933574,5.90571218,1.47716663,2.50133549,2.21574994,5.3650692,2.21574994,8.59317067,0,3.22908625-.74843109,6.10365251-2.24529328,8.62271401-1.49489263,2.52004627-3.50383925,4.49846478-6.02290074,5.93525552-2.52103105,1.43777552-5.31583031,2.1556785-8.38636734,2.1556785ZM205.74144777,81.75818148c1.84941262,0,3.50383925-.45201299,4.96131032-1.3589933,1.45550152-.90501076,2.61753927-2.15469372,3.48414369-3.75003368.86463487-1.59435518,1.29990663-3.39551369,1.29990663-5.40347553s-.43527177-3.79927257-1.29990663-5.3739322c-.86660442-1.57465963-2.02864217-2.81449482-3.48414369-3.72049035-1.45747107-.90599553-3.1118977-1.3589933-4.96131032-1.3589933-1.85138218,0-3.51368702.45299777-4.99085365,1.3589933-1.47519707.90599553-2.63723482,2.14583072-3.48414369,3.72049035-.84690887,1.57465963-1.26839375,3.36597036-1.26839375,5.3739322s.42148488,3.80912035,1.26839375,5.40347553c.84690887,1.59533996,2.00894662,2.84502293,3.48414369,3.75003368,1.47716663.90698031,3.13947148,1.3589933,4.99085365,1.3589933Z" fill="#ededed" stroke-width="0"/>
      <path d="M227.737878,87.25028701v-31.95012942h6.37742073v3.89775035c.86660442-1.49587741,2.09757661-2.63723482,3.69094702-3.42505703,1.59533996-.78683742,3.37581814-1.1817333,5.34537364-1.1817333,2.32210594,0,4.39013922.51306921,6.20213029,1.53625329,1.81002151,1.02416886,3.23794925,2.44126405,4.27984411,4.25227034,1.04386442,1.81100629,1.56579663,3.87805479,1.56579663,6.20016073v20.67048504h-6.61376739v-18.83879842c0-2.36248183-.65980109-4.222727-1.97940328-5.5817203-1.31960219-1.35800852-3.02129815-2.03750517-5.10705743-2.03750517-2.08772884,0-3.79139435.67949665-5.10902698,2.03750517-1.31960219,1.3589933-1.97940328,3.21923847-1.97940328,5.5817203v18.83879842h-6.67285405Z" fill="#ededed" stroke-width="0"/>
      <path d="M184.35910469,54.58528901c-1.97619287,0-3.7502238.39868083-5.33930408,1.19032891-1.59486439.78586396-2.82561158,1.93577459-3.69238263,3.42666595v-3.89468564h-6.37367344v31.94920378h6.67409482v-18.83788076c0-2.363376.64718624-4.23559584,1.97626341-5.58773894,1.31172482-1.35221364,3.02791459-2.03403404,5.1023669-2.03403404.66453859,0,1.28865889.06926833,1.87229038.21373017.27735545-.58356095.57784737-1.14991063.90140522-1.70462153.87826875-1.49082083,1.88950165-2.85453216,3.03941228-4.07956577-1.28280424-.42767195-2.6695815-.64140212-4.16047286-.64140212Z" fill="#ededed" stroke-width="0"/>
      <path d="M276.16530878,87.604807c-3.34824436,0-5.94608807-.94538664-7.79747025-2.83517515-1.84941262-1.88978851-2.77510371-4.54671889-2.77510371-7.97276069v-15.47282806h-5.60929408v-6.02388552h.88433042c1.45747107,0,2.60769149-.42246966,3.45656991-1.26937852.84493931-.84592409,1.26839375-2.03750517,1.26839375-3.57277369v-2.48065516h6.67482361v7.32280737h7.26372071v6.02388552h-7.26372071v15.17739473c0,1.65442663.40178932,2.93365293,1.20930708,3.83866368.80751776.90698031,2.17635883,1.3589933,4.10455367,1.3589933.70903998,0,1.43777552-.05908667,2.18620661-.17726v5.72845219c-1.22112441.23634666-2.42255327.35451999-3.60231702.35451999Z" fill="#ededed" stroke-width="0"/>
      <rect x="286.26321986" y="55.30015759" width="6.67285405" height="31.95012942" fill="#ededed" stroke-width="0"/>
      <path d="M310.00424193,87.25028701l-12.52046435-31.95012942h7.26372071l8.26819401,22.50118688,8.32728068-22.50118688h7.32280737l-12.57955102,31.95012942h-6.0819874Z" fill="#ededed" stroke-width="0"/>
      <rect x="332.35198772" y="43.39728586" width="8.39190755" height="8.39190755" rx="4.19594957" ry="4.19594957" fill="#ededed" stroke-width="0"/>
      <rect x="285.40369312" y="43.39728586" width="8.39190755" height="8.39190755" rx="4.19594958" ry="4.19594958" fill="#ededed" stroke-width="0"/>
      <rect x="333.21151446" y="55.30015759" width="6.67285405" height="31.95012942" fill="#ededed" stroke-width="0"/>
      <path d="M355.26635477,87.95932699c-3.23007103,0-5.8476103-.82721331-7.85458736-2.48065516-2.00894662-1.65344185-3.01341992-3.87805479-3.01341992-6.67383883,0-2.5584526.8764522-4.73382666,2.6293566-6.52513739,1.75093484-1.79131073,4.47679967-3.00258737,8.17956402-3.63284513l10.15699774-1.65344185v-1.23983519c0-1.53526852-.59086665-2.81449482-1.77259996-3.83866368-1.17976375-1.02318409-2.71601704-1.53526852-4.60482077-1.53526852-1.77259996,0-3.32854881.46284554-4.66587699,1.38755185-1.33929774.92569109-2.30437994,2.11628739-2.89327704,3.57277369l-5.55217697-2.77608849c.59086665-1.53526852,1.54413152-2.90214004,2.86373371-4.1035689,1.31960219-1.20142886,2.88342926-2.14583072,4.69542033-2.83517515,1.81002151-.68835965,3.72049035-1.03401664,5.72943697-1.03401664,2.51906149,0,4.74268966.47269332,6.67285405,1.41807996,1.92819484.94440187,3.44475258,2.25415628,4.54770366,3.92729368,1.10098153,1.67412218,1.65245707,3.6121648,1.65245707,5.81708219v21.49671357h-6.37742073v-3.72049035c-1.1817333,1.41709519-2.65693038,2.51019849-4.42953033,3.27734036-1.7706304.76812665-3.75988146,1.15218997-5.96381407,1.15218997ZM351.36860443,78.56848634c0,1.22112441.46087599,2.21476517,1.38656708,2.98289181.92569109.76714187,2.11727217,1.15120519,3.57277369,1.15120519,1.77259996,0,3.33642703-.38406332,4.69542033-1.15120519,1.3589933-.76812665,2.42255327-1.82085407,3.18871036-3.16015181.76812665-1.33732819,1.15218997-2.81351004,1.15218997-4.42854556v-1.71252851l-8.85906067,1.53526852c-1.7706304.31512888-3.07053703.8853152-3.89775035,1.71252851s-1.23885041,1.85138218-1.23885041,3.07053703Z" fill="#ededed" stroke-width="0"/>
    </g>
  </g>
</svg>